<?xml version="1.0" encoding="iso-8859-1"?>
<!-- Generator: Adobe Illustrator 19.0.0, SVG Export Plug-In . SVG Version: 6.00 Build 0)  -->
<svg version="1.1" id="Layer_1" xmlns="http://www.w3.org/2000/svg" xmlns:xlink="http://www.w3.org/1999/xlink" x="0px" y="0px"
	 viewBox="0 0 460 460" style="enable-background:new 0 0 460 460;" xml:space="preserve">
<g>
	<g>
		<path d="M450,20c0-11.028-8.972-20-20-20H310c-11.028,0-20,8.972-20,20v20c0,3.645,0.996,7.054,2.706,10
			c-1.71,2.946-2.706,6.355-2.706,10v20c0,3.645,0.996,7.054,2.706,10c-1.71,2.946-2.706,6.355-2.706,10v20H170
			c-11.028,0-20,8.972-20,20v20c0,3.645,0.996,7.054,2.706,10c-1.71,2.946-2.706,6.355-2.706,10v20c0,3.645,0.996,7.054,2.706,10
			c-1.71,2.946-2.706,6.355-2.706,10v20H30c-11.028,0-20,8.972-20,20v20c0,3.645,0.996,7.054,2.706,10
			c-1.71,2.946-2.706,6.355-2.706,10v20c0,3.645,0.996,7.054,2.706,10c-1.71,2.946-2.706,6.355-2.706,10v20
			c0,3.645,0.996,7.054,2.706,10c-1.71,2.946-2.706,6.355-2.706,10v20c0,3.645,0.996,7.054,2.706,10
			c-1.71,2.946-2.706,6.355-2.706,10v20c0,11.028,8.972,20,20,20h120c3.645,0,7.054-0.996,10-2.706c2.946,1.71,6.355,2.706,10,2.706
			h120c3.645,0,7.054-0.996,10-2.706c2.946,1.71,6.355,2.706,10,2.706h120c11.028,0,20-8.972,20-20v-20
			c0-3.645-0.996-7.054-2.706-10c1.71-2.946,2.706-6.355,2.706-10v-20c0-3.645-0.996-7.054-2.706-10
			c1.71-2.946,2.706-6.355,2.706-10v-20c0-3.645-0.996-7.054-2.706-10c1.71-2.946,2.706-6.355,2.706-10v-20
			c0-3.645-0.996-7.054-2.706-10c1.71-2.946,2.706-6.355,2.706-10v-20c0-3.645-0.996-7.054-2.706-10
			c1.71-2.946,2.706-6.355,2.706-10v-20c0-3.645-0.996-7.054-2.706-10c1.71-2.946,2.706-6.355,2.706-10v-20
			c0-3.645-0.996-7.054-2.706-10c1.71-2.946,2.706-6.355,2.706-10v-20c0-3.645-0.996-7.054-2.706-10
			c1.71-2.946,2.706-6.355,2.706-10v-20c0-3.645-0.996-7.054-2.706-10c1.71-2.946,2.706-6.355,2.706-10V60
			c0-3.645-0.996-7.054-2.706-10c1.71-2.946,2.706-6.355,2.706-10V20z M150,440H30v-20h120V440z M150,400H30v-20h120V400z M150,360
			H30v-20h120V360z M150,320H30v-20h120V320z M150,280H30v-20h120V280z M290,440H170v-20h120V440z M290,400H170v-20h120V400z
			 M290,360H170v-20h120V360z M290,320H170v-20h120V320z M290,280H170v-20h120V280z M290,240H170v-20h120V240z M290,200H170v-20h120
			V200z M290,160H170v-20h120V160z M430,440H310v-20h120V440z M430,400H310v-20h120V400z M430,360H310v-20h120V360z M430,320H310
			v-20h120V320z M430,280H310v-20h120V280z M430,240H310v-20h120V240z M430,200H310v-20h120V200z M430,160H310v-20h120V160z
			 M430,120H310v-20h120V120z M430,80H310V60h120V80z M310,40V20h120l0.002,20H310z"/>
	</g>
</g>
<g>
</g>
<g>
</g>
<g>
</g>
<g>
</g>
<g>
</g>
<g>
</g>
<g>
</g>
<g>
</g>
<g>
</g>
<g>
</g>
<g>
</g>
<g>
</g>
<g>
</g>
<g>
</g>
<g>
</g>
</svg>
